<?xml version="1.0" standalone="no"?>
<!DOCTYPE svg PUBLIC "-//W3C//DTD SVG 20010904//EN"
 "http://www.w3.org/TR/2001/REC-SVG-20010904/DTD/svg10.dtd">
<svg version="1.0" xmlns="http://www.w3.org/2000/svg"
 width="272.000000pt" height="272.000000pt" viewBox="0 0 272.000000 272.000000"
 preserveAspectRatio="xMidYMid meet">
<metadata>
Created by potrace 1.14, written by Peter Selinger 2001-2017
</metadata>
<g transform="translate(0.000000,272.000000) scale(0.100000,-0.100000)"
fill="#000000" stroke="none">
<path d="M1160 2655 c-317 -50 -617 -221 -810 -462 -157 -194 -250 -403 -284
-636 -121 -815 520 -1535 1339 -1504 276 11 517 93 729 250 647 478 718 1416
152 1983 -293 292 -721 433 -1126 369z m471 -74 c416 -95 755 -392 902 -791
57 -155 72 -242 72 -430 0 -188 -15 -275 -72 -430 -62 -169 -145 -301 -272
-434 -176 -183 -401 -309 -651 -362 -119 -26 -381 -26 -500 0 -491 105 -871
485 -976 976 -26 119 -26 381 0 500 53 250 179 475 362 651 200 191 423 298
719 343 71 11 332 -4 416 -23z"/>
<path d="M1186 2560 c-526 -83 -936 -488 -1021 -1010 -68 -420 101 -863 429
-1126 148 -118 291 -190 485 -242 86 -23 115 -25 276 -26 198 0 263 11 435 73
311 114 588 391 701 701 63 174 73 238 73 435 -1 161 -3 190 -26 276 -124 463
-439 777 -897 896 -76 19 -127 25 -246 28 -82 2 -177 0 -209 -5z m253 -412
c164 -60 248 -151 286 -310 37 -159 0 -300 -113 -420 -49 -53 -156 -112 -221
-123 -23 -4 -41 -12 -41 -20 0 -7 99 -171 220 -365 121 -194 220 -357 220
-362 0 -4 -58 -8 -130 -8 -129 0 -130 0 -147 27 -10 14 -103 175 -209 357
l-191 331 -126 3 -127 3 -2 -358 -3 -358 -107 -3 -108 -3 0 821 0 822 363 -4
362 -3 74 -27z m641 -633 l0 -115 115 0 115 0 0 -40 0 -40 -115 0 -115 0 0
-115 0 -115 -35 0 -35 0 0 115 0 115 -120 0 -120 0 0 40 0 40 120 0 120 0 0
115 0 115 35 0 35 0 0 -115z"/>
<path d="M860 1720 l0 -272 218 4 c195 4 223 6 273 26 107 42 149 112 149 244
0 100 -20 150 -76 196 -70 58 -106 65 -346 70 l-218 4 0 -272z"/>
</g>
</svg>
